<?xml version="1.0" encoding="UTF-8" standalone="no"?>
<svg
   width="24"
   height="24"
   viewBox="0 0 24 24"
   fill="none"
   stroke="currentColor"
   stroke-width="2"
   stroke-linecap="round"
   stroke-linejoin="round"
   class="icon icon-tabler icons-tabler-outline icon-tabler-brand-linkedin"
   version="1.1"
   id="svg14"
   sodipodi:docname="brand-linkedin.svg"
   inkscape:version="1.2.1 (9c6d41e410, 2022-07-14)"
   xmlns:inkscape="http://www.inkscape.org/namespaces/inkscape"
   xmlns:sodipodi="http://sodipodi.sourceforge.net/DTD/sodipodi-0.dtd"
   xmlns="http://www.w3.org/2000/svg"
   xmlns:svg="http://www.w3.org/2000/svg">
  <defs
     id="defs18" />
  <sodipodi:namedview
     id="namedview16"
     pagecolor="#ffffff"
     bordercolor="#000000"
     borderopacity="0.25"
     inkscape:showpageshadow="2"
     inkscape:pageopacity="0.0"
     inkscape:pagecheckerboard="0"
     inkscape:deskcolor="#d1d1d1"
     showgrid="false"
     inkscape:zoom="36"
     inkscape:cx="12"
     inkscape:cy="12.013889"
     inkscape:window-width="1817"
     inkscape:window-height="1051"
     inkscape:window-x="94"
     inkscape:window-y="-9"
     inkscape:window-maximized="1"
     inkscape:current-layer="svg14" />
  <path
     stroke="none"
     d="M0 0h24v24H0z"
     fill="none"
     id="path2" />
  <path
     d="M4 4m0 2a2 2 0 0 1 2 -2h12a2 2 0 0 1 2 2v12a2 2 0 0 1 -2 2h-12a2 2 0 0 1 -2 -2z"
     id="path4"
     style="stroke:#cccccc" />
  <path
     d="M8 11l0 5"
     id="path6"
     style="stroke:#cccccc" />
  <path
     d="M8 8l0 .01"
     id="path8"
     style="stroke:#cccccc" />
  <path
     d="M12 16l0 -5"
     id="path10"
     style="stroke:#cccccc" />
  <path
     d="M16 16v-3a2 2 0 0 0 -4 0"
     id="path12"
     style="stroke:#cccccc" />
</svg>
